<mxfile host="app.diagrams.net" agent="Mozilla/5.0 (X11; Linux x86_64) AppleWebKit/537.36 (KHTML, like Gecko) Chrome/136.0.0.0 Safari/537.36" version="27.2.0">
  <diagram name="第 1 页" id="SAa0V_dGnNZgj1_m1_-2">
    <mxGraphModel dx="596" dy="335" grid="1" gridSize="10" guides="1" tooltips="1" connect="1" arrows="1" fold="1" page="1" pageScale="1" pageWidth="827" pageHeight="1169" math="0" shadow="0">
      <root>
        <mxCell id="0" />
        <mxCell id="1" parent="0" />
        <mxCell id="uD_gBPKRbGf4DmkfQiqW-1" value="" style="rounded=0;whiteSpace=wrap;html=1;fillColor=none;" parent="1" vertex="1">
          <mxGeometry x="360" y="240" width="120" height="120" as="geometry" />
        </mxCell>
        <mxCell id="uD_gBPKRbGf4DmkfQiqW-7" value="" style="ellipse;whiteSpace=wrap;html=1;aspect=fixed;" parent="1" vertex="1">
          <mxGeometry x="358" y="238" width="4" height="4" as="geometry" />
        </mxCell>
        <mxCell id="uD_gBPKRbGf4DmkfQiqW-12" value="" style="ellipse;whiteSpace=wrap;html=1;aspect=fixed;" parent="1" vertex="1">
          <mxGeometry x="437" y="238" width="4" height="4" as="geometry" />
        </mxCell>
        <mxCell id="BlKJdgy9hVPK1SEFYLWn-2" value="" style="ellipse;whiteSpace=wrap;html=1;aspect=fixed;" parent="1" vertex="1">
          <mxGeometry x="478" y="238" width="4" height="4" as="geometry" />
        </mxCell>
        <mxCell id="BlKJdgy9hVPK1SEFYLWn-23" value="" style="ellipse;whiteSpace=wrap;html=1;aspect=fixed;" parent="1" vertex="1">
          <mxGeometry x="358" y="278" width="4" height="4" as="geometry" />
        </mxCell>
        <mxCell id="BlKJdgy9hVPK1SEFYLWn-24" value="" style="ellipse;whiteSpace=wrap;html=1;aspect=fixed;" parent="1" vertex="1">
          <mxGeometry x="437" y="278" width="4" height="4" as="geometry" />
        </mxCell>
        <mxCell id="BlKJdgy9hVPK1SEFYLWn-26" value="" style="ellipse;whiteSpace=wrap;html=1;aspect=fixed;" parent="1" vertex="1">
          <mxGeometry x="478" y="278" width="4" height="4" as="geometry" />
        </mxCell>
        <mxCell id="BlKJdgy9hVPK1SEFYLWn-27" value="" style="ellipse;whiteSpace=wrap;html=1;aspect=fixed;" parent="1" vertex="1">
          <mxGeometry x="358" y="318" width="4" height="4" as="geometry" />
        </mxCell>
        <mxCell id="BlKJdgy9hVPK1SEFYLWn-28" value="" style="ellipse;whiteSpace=wrap;html=1;aspect=fixed;" parent="1" vertex="1">
          <mxGeometry x="437" y="318" width="4" height="4" as="geometry" />
        </mxCell>
        <mxCell id="BlKJdgy9hVPK1SEFYLWn-30" value="" style="ellipse;whiteSpace=wrap;html=1;aspect=fixed;" parent="1" vertex="1">
          <mxGeometry x="478" y="318" width="4" height="4" as="geometry" />
        </mxCell>
        <mxCell id="BlKJdgy9hVPK1SEFYLWn-31" value="" style="ellipse;whiteSpace=wrap;html=1;aspect=fixed;" parent="1" vertex="1">
          <mxGeometry x="358" y="358" width="4" height="4" as="geometry" />
        </mxCell>
        <mxCell id="BlKJdgy9hVPK1SEFYLWn-32" value="" style="ellipse;whiteSpace=wrap;html=1;aspect=fixed;" parent="1" vertex="1">
          <mxGeometry x="437" y="358" width="4" height="4" as="geometry" />
        </mxCell>
        <mxCell id="BlKJdgy9hVPK1SEFYLWn-34" value="" style="ellipse;whiteSpace=wrap;html=1;aspect=fixed;" parent="1" vertex="1">
          <mxGeometry x="478" y="358" width="4" height="4" as="geometry" />
        </mxCell>
        <mxCell id="PFHoDirS1wCgLFE2cumE-1" value="" style="ellipse;whiteSpace=wrap;html=1;aspect=fixed;" vertex="1" parent="1">
          <mxGeometry x="398" y="238" width="4" height="4" as="geometry" />
        </mxCell>
        <mxCell id="PFHoDirS1wCgLFE2cumE-2" value="" style="ellipse;whiteSpace=wrap;html=1;aspect=fixed;" vertex="1" parent="1">
          <mxGeometry x="398" y="278" width="4" height="4" as="geometry" />
        </mxCell>
        <mxCell id="PFHoDirS1wCgLFE2cumE-3" value="" style="ellipse;whiteSpace=wrap;html=1;aspect=fixed;" vertex="1" parent="1">
          <mxGeometry x="398" y="318" width="4" height="4" as="geometry" />
        </mxCell>
        <mxCell id="PFHoDirS1wCgLFE2cumE-4" value="" style="ellipse;whiteSpace=wrap;html=1;aspect=fixed;" vertex="1" parent="1">
          <mxGeometry x="398" y="358" width="4" height="4" as="geometry" />
        </mxCell>
      </root>
    </mxGraphModel>
  </diagram>
</mxfile>
